<svg xmlns="http://www.w3.org/2000/svg" viewBox="0 0 250 1000" width="250" height="1000">
	<style>
		tspan { white-space:pre }
		.shp0 { fill: #000000 } 
	</style>
	<g id="Layer">
		<path id="Layer" class="shp0" d="M78.4 767.2C79.7 767.5 83.2 767.4 86.1 767C89.1 766.6 91.6 766.3 91.7 766.4C91.9 766.5 91.5 768.2 91 770.1C89.2 776.2 89.8 780.9 93.1 787.1C94.9 790.3 96.6 793 97 793C97.4 793 99.3 791.1 101.2 788.7C103.2 786.4 106.1 783 107.8 781.2C109.5 779.4 111.2 777 111.5 775.9C112.5 772.9 113.7 773.6 116.2 778.8L118.5 783.5L121.8 777C123.6 773.5 125.3 768.2 125.7 765.3C126.2 761 126.6 760 128.1 760C130.3 760 130.3 759.7 129 754.9C128.4 752.9 127 750.8 125.7 750.1C122.4 748.3 109 745.1 107.4 745.7C106.6 746 105.9 745.2 105.5 743.3C105.1 741.8 104.7 740 104.5 739.3C104 737.7 93.6 734 89.6 734C87.8 734 85.1 734.9 83.7 736L81.1 738L83 743.6C84.9 749 84.9 749.1 83 751C81.9 752.1 81 753.7 81 754.6C81 755.5 79.9 757.5 78.5 759.2C75.2 763.1 75.2 766.6 78.4 767.2Z" />
		<path id="Layer" class="shp0" d="M79.7 344.8C81.8 345.9 85.2 347.3 87.3 347.9L91 349.2L88.2 352.8C86.6 354.9 84.8 357.5 84.1 358.7C82.8 361.3 82.6 374.6 83.9 375.5C84.4 375.8 89.8 373.6 95.9 370.7L106.9 365.5L107.5 368.7C107.8 370.4 107.8 373 107.4 374.4C107 376 107.2 377 107.8 377C108.5 377 108.6 378.1 107.9 380.2C101.2 403.7 87 479.7 85.4 500.9C84.8 508.2 85 509.8 86.4 510.9C87.3 511.7 88.2 512.1 88.4 511.9C88.6 511.7 89.3 505.9 90 499C90.6 492.1 92 482 93 476.5C94 471 97.4 452.9 100.4 436.2C103.5 419.6 107.9 398.2 110.3 388.7C114 374.1 115.1 371 117.7 368.3C119.4 366.5 121.3 363.7 122 362C123.1 359.4 123.8 358.9 125.7 359.3C128.4 359.8 128.5 359.7 129.4 354.8C130 351.3 129.7 350.6 125.5 346.1L120.8 341.1L122 333.8C123 326.8 124 323.8 124 327.4C124 328.3 124.4 328.8 125 328.5C125.5 328.2 126 328.4 126 329C126 329.7 126.7 330 127.5 329.7C128.3 329.3 129.2 329.5 129.5 330C129.9 330.6 131 331 132 331C133.3 331 134.2 331.9 134.6 333.5C134.9 334.9 135.7 336 136.2 336C136.8 336 138 337 139 338.2C140 339.5 142.8 342 145.3 343.7L149.8 347L152.9 341.5C154.6 338.5 156 335.1 156 333.9C156 331.8 156.1 331.8 158.6 333.5C162.9 336.3 169.5 337.8 175.9 337.4C179.2 337.2 183.1 337.5 184.4 338C187.7 339.2 177.8 329 173.2 326.4C171.5 325.4 170 324.1 170 323.4C170 322.8 169.1 321.5 168 320.5C166.9 319.5 166 318.1 166 317.5C166 316.8 169.4 315 173.5 313.4C177.6 311.8 181 310.3 181 310C181 309.7 177.7 308.5 173.7 307.2C169.8 306 165.6 304.3 164.5 303.5C162.8 302.1 162.7 301.7 163.9 299.8C165 298.1 165 297.6 163.8 296.8C162.4 295.9 153 296.7 149.3 298.1C146.8 299 143 304.5 143 307.2C143 308.7 142 308.9 136.3 308.8C130.1 308.7 129.5 308.9 127.2 311.6L124.8 314.5L125.4 308C125.8 304.4 126.3 299 126.7 296L127.3 290.6L124.9 292.1C123.5 293.1 122.4 294.9 122.2 296.6C121.6 303.2 116.9 337.4 116.6 337.7C116.4 337.9 115.5 337.8 114.6 337.4C113.2 336.9 113 336 113.5 333C114.1 329.6 113.8 328.7 110.6 325.3C105.7 319.8 101.2 317.6 96.8 318.4C93.3 319 93.2 319.1 92.6 325C92.1 328.9 91.4 331 90.6 331C89.9 331 88.5 331.9 87.4 333.1C86.4 334.3 83.8 336.1 81.8 337.1C79.7 338.2 77.6 339.9 77 341C76.1 342.7 76.5 343.2 79.7 344.8Z" />
		<path id="Layer" class="shp0" d="M84.9 540.2C85.2 545.5 85.8 550.2 86.2 550.5C86.6 550.9 87.7 551 88.6 550.6C90 550 90.2 548.7 89.5 539.2C88.8 529.1 88 526.6 85.5 527.3C84.2 527.7 84.2 528.4 84.9 540.2Z" />
		<path id="Layer" class="shp0" d="M93.1 39.5C97.9 47.5 105.1 62.1 104.8 63.1C104.6 63.6 102.4 61.3 99.8 58C94.5 51 94.8 50.8 93 64.6C91.6 75 92.3 77.4 98.5 82.9C101.3 85.3 103 86 106.4 86C109.5 86 111.2 86.6 112.7 88.2C115.2 90.9 119.3 107.8 121.9 126C123.5 137.3 123.5 138.8 122.2 141.7C120.8 144.6 120.8 145.3 122.5 149C124.2 152.8 124.2 153.2 122.5 157C120.1 162.4 120.8 170.1 124.1 173.6C126.5 176.1 126.5 176.4 126.8 200.3C127 213.6 126.7 232.8 126.1 243C125.3 259.8 125.3 261.6 126.8 262.8C128.3 263.9 128.6 263.7 129.3 260.8C129.7 259 130.3 239.2 130.7 216.7C131.2 181.2 131.5 176 132.8 176C133.7 176 136.8 177.4 139.7 179L145.1 182.1L147 177.8C148.1 175.4 149 172.8 149 172C149 170.8 150.6 170.5 157.3 170.5C164.7 170.5 166.1 170.2 169.8 167.7C174.5 164.7 176.6 164.4 179.4 166.5C180.5 167.3 181.7 168 182.2 168C184.4 168 182.3 164.8 176 158.5C172.1 154.7 169 151.1 169 150.5C169 149.3 163.9 146 159.7 144.5L156.9 143.4L160.4 140.2C165.3 135.8 165 134.6 159.5 135.2C157 135.5 155 135.4 155 134.9C155 133.2 145.9 134 142 136C137.6 138.2 134.5 138.6 133.4 136.9C133.1 136.3 131.7 136 130.4 136.3C129.1 136.5 128 136.6 128 136.4C128 134.5 124.6 114.4 123 106.6C120.4 93.8 120.4 93.8 123.6 95C128.5 96.9 136.4 94.4 140.9 89.6L143.4 87L138.2 84.8C135.3 83.6 133 82.1 133 81.5C133 80.8 135.2 76.1 137.8 70.9C142.7 61.3 145 53.6 145 47.2L145 43.6L141.5 47.7C136.8 53.2 126.7 56.9 120.6 55.2C115.6 53.9 112.3 55.1 111.4 58.5C111.1 59.9 110.5 61 110.1 61C109.8 61 107.4 56.6 104.8 51.2C99 39.3 93.9 31.5 92 31.5C89.5 31.5 89.9 34.2 93.1 39.5Z" />
		<path id="Layer" class="shp0" d="M95.4 610.5C97.8 620.9 102.5 639.8 105.9 652.4C109.2 665 111.8 675.5 111.6 675.7C111.4 676 109 673.4 106.3 670.1C103.7 666.8 101.4 664.4 101.3 664.8C101.1 665.2 100.4 670 99.6 675.4C98.2 684.8 98.2 685.5 100 689.1C103 694.8 107.7 698 113.3 698L117.9 698L119.3 702.7C120.1 705.4 122.2 713.7 124.1 721.2C125.9 728.8 127.7 735 128 735C128.3 735 129 733.4 129.6 731.4C130.6 728.2 130.4 726.2 127.9 717.1C126.3 711.3 125 706.2 125 705.8C125 705.4 126.7 705.8 128.7 706.7C133.9 708.8 141.1 707.1 146.5 702.5L150.5 699.1L147 697.7C145.1 696.9 142.7 696 141.7 695.7C139.1 694.7 139.6 691.6 143.9 683.7C148.1 676 150.5 668.4 151.3 660.6L151.8 655.7L147.6 660.2C144.2 663.9 142.3 665 136.9 666.4C132 667.8 129.5 668 126.9 667.2C122.5 666 119.5 667.1 117.6 670.7C116.8 672.2 116.1 673.2 116 672.8C116 672.3 113.5 662.7 110.5 651.4C107.5 640.1 103 621.5 100.5 610.1C96.1 590.8 94.7 587 91.8 587C90.4 587 91 591 95.4 610.5Z" />
		<path id="Layer" class="shp0" d="M104.6 980.1C106.1 981.3 107 980.6 112.7 974.6C124.6 961.8 133.2 946.9 139.7 928.4L143.4 917.5L144.8 922.2C146.4 927.9 148 928.3 154 924.5L158 922L160.1 925.2C163 929.6 169.4 934 173.9 934.7C179.4 935.6 180.9 936.7 181.6 940.5C182.3 944.6 183.6 945.8 184.4 943.3C185.4 939.9 185.3 915.5 184.3 913C182.6 908.9 182.8 908.6 187.5 908.9C193 909.2 193.6 907.3 189 904C187.3 902.8 186.2 901.5 186.5 901C187.2 899.9 179.3 893 177.2 893C174.3 893 169.2 889.3 169.3 887.3C169.4 886.1 168.2 884.9 165.7 883.7C159.8 880.7 154.5 883.1 153.3 889.2C152.8 891.7 150.5 894 148.5 894C148.2 894 148.2 889.9 148.6 884.9C149.3 876.3 149.2 875.8 147.4 876.2C145.8 876.5 145.3 878 144.3 886.3C143.3 894.2 142.6 896.7 140.6 899.1C137.4 902.8 136.4 908.1 138 912C139 914.5 138.9 916 137 922.1C131.4 940.6 119.8 961 108.6 972C105.5 975 103 977.7 103 978.1C103 978.5 103.7 979.4 104.6 980.1Z" />
		<path id="Layer" class="shp0" d="M133.1 759.5C138.9 785.9 145 828.6 145 843L145 848L147.5 846.4C150.2 844.6 150.2 846 147.9 821.5C145.6 796.9 138.1 756.2 135.2 752.1C134.3 750.8 132.7 748.6 131.8 747.1C129.6 743.9 129.6 743.7 133.1 759.5Z" />
	</g>
</svg>